<svg width="64" height="18" viewBox="0 0 64 18" fill="none" xmlns="http://www.w3.org/2000/svg">
<path d="M0.718334 0.980008C0.718334 0.858386 0.775345 0.778571 0.889366 0.740564C1.01099 0.694955 1.13641 0.672151 1.26564 0.672151H2.155C2.23102 0.66455 2.37544 0.656948 2.58828 0.649347C2.80872 0.641745 3.03677 0.634144 3.27241 0.626542C3.51566 0.61134 3.7437 0.599938 3.95654 0.592336C4.17698 0.584735 4.33281 0.577133 4.42403 0.569532C4.43923 0.584735 4.49244 0.603738 4.58366 0.626542C4.67487 0.641745 4.73949 0.656948 4.77749 0.672151H4.8345C4.93332 0.672151 5.02074 0.645546 5.09675 0.592336C5.18037 0.539126 5.26398 0.512521 5.3476 0.512521C5.3628 0.497318 5.40841 0.489717 5.48442 0.489717C5.54524 0.489717 5.60985 0.493518 5.67826 0.501119C5.74667 0.50872 5.78848 0.512521 5.80368 0.512521C5.8645 0.497318 5.95951 0.482116 6.08874 0.466913C6.22556 0.444108 6.36239 0.421304 6.49921 0.3985C6.64364 0.375696 6.77286 0.356692 6.88689 0.341489C7.00851 0.326286 7.08832 0.314884 7.12633 0.307283C7.13393 0.307283 7.15674 0.299681 7.19474 0.284479C7.24035 0.269276 7.28596 0.254073 7.33157 0.23887C7.38478 0.216066 7.43039 0.197062 7.46839 0.181859C7.514 0.159055 7.54441 0.143852 7.55961 0.136251C7.59002 0.121048 7.65083 0.102045 7.74205 0.0792403C7.83326 0.0488346 7.88267 0.0336318 7.89027 0.0336318H8.47178H9.04189C9.14071 0.0716389 9.19772 0.13245 9.21292 0.216066C9.22812 0.299681 9.23572 0.379496 9.23572 0.455511C9.23572 0.485916 9.23192 0.527724 9.22432 0.580934C9.21672 0.626542 9.21292 0.656948 9.21292 0.672151C9.21292 0.687354 9.19772 0.713959 9.16731 0.751966C9.13691 0.782372 9.1027 0.816578 9.06469 0.854585C9.02669 0.884991 8.98868 0.915396 8.95067 0.945802C8.92027 0.968606 8.89746 0.980008 8.88226 0.980008C8.82145 1.00281 8.72263 1.02562 8.5858 1.04842C8.44898 1.07123 8.30455 1.09403 8.15252 1.11683C8.0081 1.13204 7.86747 1.14724 7.73064 1.16244C7.60142 1.17765 7.5102 1.18525 7.45699 1.18525C7.44939 1.18525 7.43039 1.18905 7.39998 1.19665C7.36958 1.19665 7.33157 1.19665 7.28596 1.19665C7.19474 1.19665 7.09212 1.19665 6.9781 1.19665C6.87168 1.18905 6.80327 1.18525 6.77286 1.18525C6.66644 1.19285 6.54862 1.21185 6.4194 1.24226C6.29778 1.26506 6.20276 1.32967 6.13435 1.43609C6.13435 1.4741 6.12674 1.53871 6.11154 1.62993C6.09634 1.72115 6.08114 1.81997 6.06593 1.92639C6.05073 2.0252 6.03173 2.12402 6.00892 2.22284C5.99372 2.31406 5.98612 2.37487 5.98612 2.40527C5.98612 2.42048 5.97472 2.46609 5.95191 2.5421C5.92911 2.61051 5.91771 2.64852 5.91771 2.65612C5.9101 2.67893 5.9025 2.70553 5.8949 2.73594C5.8873 2.76634 5.8835 2.80815 5.8835 2.86136C5.8835 3.03619 5.8987 3.20342 5.92911 3.36305C5.96711 3.52268 5.98612 3.70132 5.98612 3.89895C5.98612 4.18021 5.97472 4.45386 5.95191 4.71991C5.92911 4.97836 5.91771 5.2444 5.91771 5.51806C5.91771 5.53326 5.92151 5.55986 5.92911 5.59787C5.93671 5.62828 5.94431 5.66628 5.95191 5.71189C5.95951 5.7575 5.96711 5.79931 5.97472 5.83732C5.98232 5.87532 5.98612 5.90193 5.98612 5.91713C5.98612 5.93233 5.98612 5.97794 5.98612 6.05396C5.99372 6.12237 5.99752 6.20218 5.99752 6.2934C5.99752 6.38462 5.99752 6.48344 5.99752 6.58986C5.99752 6.69628 5.99372 6.7989 5.98612 6.89771C5.98612 6.99653 5.98612 7.08395 5.98612 7.15996C5.98612 7.23598 5.98612 7.28919 5.98612 7.31959C5.98612 7.31959 5.98992 7.3386 5.99752 7.3766C6.00512 7.40701 6.01272 7.44122 6.02032 7.47922C6.02793 7.50963 6.03553 7.54383 6.04313 7.58184C6.05073 7.61225 6.05453 7.62745 6.05453 7.62745C6.05453 7.65786 6.05833 7.71487 6.06593 7.79848C6.07353 7.8821 6.08114 7.97331 6.08874 8.07213C6.10394 8.16335 6.11534 8.25457 6.12294 8.34578C6.13054 8.4294 6.13435 8.49401 6.13435 8.53962L6.15715 8.58523C6.17235 8.61563 6.17995 8.63844 6.17995 8.65364C6.17995 9.12493 6.15715 9.59622 6.11154 10.0675C6.06593 10.5388 6.02412 11.0139 5.98612 11.4928C5.98612 11.5156 5.98992 11.5574 5.99752 11.6182C6.00512 11.6714 6.01272 11.7322 6.02032 11.8006C6.02793 11.8614 6.03553 11.9223 6.04313 11.9831C6.05073 12.0439 6.05453 12.0857 6.05453 12.1085C6.06213 12.1693 6.06973 12.2719 6.07733 12.4163C6.09254 12.5532 6.10394 12.7014 6.11154 12.861C6.11914 13.0207 6.12294 13.1727 6.12294 13.3171C6.13054 13.4539 6.13435 13.549 6.13435 13.6022C6.14955 13.625 6.15715 13.6858 6.15715 13.7846C6.15715 13.8758 6.15715 13.9822 6.15715 14.1039C6.15715 14.2179 6.15335 14.3357 6.14575 14.4573C6.14575 14.5789 6.14575 14.6968 6.14575 14.8108C6.14575 14.9172 6.14195 15.0122 6.13435 15.0958C6.13435 15.1719 6.13435 15.2213 6.13435 15.2441C6.14195 15.2821 6.14955 15.3353 6.15715 15.4037C6.17235 15.4721 6.18756 15.5405 6.20276 15.6089C6.21796 15.6774 6.24077 15.742 6.27117 15.8028C6.30918 15.856 6.35859 15.894 6.4194 15.9168C6.4498 15.9168 6.51062 15.9206 6.60183 15.9282C6.69305 15.9358 6.78807 15.9434 6.88689 15.951C6.99331 15.951 7.09212 15.9548 7.18334 15.9624C7.27456 15.97 7.33537 15.9738 7.36578 15.9738C7.39618 15.9738 7.44559 15.9814 7.514 15.9966C7.58242 16.0118 7.62422 16.0232 7.63943 16.0308C7.72304 16.0308 7.86747 16.0308 8.07271 16.0308C8.28555 16.0232 8.52119 16.0194 8.77964 16.0194C9.02288 16.0194 9.25093 16.0232 9.46377 16.0308C9.67661 16.0308 9.82483 16.0308 9.90845 16.0308C9.91605 16.0308 9.94266 16.0346 9.98827 16.0422C10.0415 16.0498 10.0985 16.0612 10.1593 16.0764C10.2201 16.084 10.2771 16.0954 10.3303 16.1106C10.3911 16.1182 10.4291 16.1258 10.4444 16.1334C10.7712 16.1486 11.1095 16.179 11.4591 16.2247C11.8164 16.2703 12.1661 16.2931 12.5081 16.2931C12.607 16.2931 12.683 16.2893 12.7362 16.2817C12.797 16.2665 12.8806 16.2437 12.987 16.2133C13.1619 16.122 13.3329 16.0308 13.5001 15.9396C13.6674 15.8408 13.8384 15.7458 14.0132 15.6545C14.0588 15.6013 14.1006 15.5595 14.1386 15.5291C14.1766 15.4987 14.2147 15.4721 14.2527 15.4493C14.2907 15.4265 14.3287 15.3999 14.3667 15.3695C14.4123 15.3391 14.4655 15.2973 14.5263 15.2441C14.7468 15.054 14.9406 14.8412 15.1078 14.6056C15.2827 14.3699 15.4499 14.1305 15.6095 13.8872C15.7691 13.6364 15.9288 13.3893 16.0884 13.1461C16.248 12.8952 16.4305 12.6672 16.6357 12.462C16.6357 12.4467 16.6547 12.4391 16.6927 12.4391H16.7041C16.7041 12.4391 16.7193 12.4467 16.7497 12.462L16.7725 12.5304C16.7801 12.5456 16.7877 12.5608 16.7953 12.576C16.8029 12.5912 16.8067 12.6064 16.8067 12.6216C16.8143 12.6444 16.8257 12.7014 16.8409 12.7926C16.8561 12.8762 16.8714 12.9712 16.8866 13.0777C16.9018 13.1841 16.917 13.2867 16.9322 13.3855C16.9474 13.4843 16.9588 13.5566 16.9664 13.6022V13.6706V13.7618C16.9664 13.7998 16.9588 13.8872 16.9436 14.024C16.9284 14.1533 16.9094 14.2977 16.8866 14.4573C16.8714 14.617 16.8561 14.769 16.8409 14.9134C16.8257 15.0502 16.8143 15.1415 16.8067 15.1871C16.8067 15.2099 16.8029 15.2707 16.7953 15.3695C16.7877 15.4683 16.7801 15.5785 16.7725 15.7002C16.7725 15.8142 16.7687 15.9244 16.7611 16.0308C16.7535 16.1296 16.7497 16.1904 16.7497 16.2133C16.7117 16.4565 16.6395 16.6503 16.5331 16.7948C16.4267 16.9316 16.2632 17 16.0428 17C15.9744 16.9848 15.8528 16.9772 15.6779 16.9772C15.5031 16.9772 15.3169 16.9772 15.1192 16.9772C14.9216 16.9772 14.7354 16.9772 14.5605 16.9772C14.3857 16.9772 14.2679 16.9848 14.2071 17C14.1919 17 14.1614 17 14.1158 17C14.0778 17.0076 14.0322 17.0152 13.979 17.0228C13.9258 17.0304 13.8764 17.0342 13.8308 17.0342C13.7928 17.0418 13.7662 17.0494 13.751 17.057H11.4021C11.3489 17.0646 11.2121 17.0722 10.9917 17.0798C10.7788 17.095 10.5508 17.1064 10.3075 17.114C10.0643 17.1292 9.83244 17.1406 9.61199 17.1482C9.39916 17.1558 9.26613 17.1596 9.21292 17.1596H9.17871H9.1217C9.07609 17.152 8.95827 17.1406 8.76824 17.1254C8.5858 17.1102 8.38437 17.0912 8.16392 17.0684C7.95108 17.0532 7.75345 17.038 7.57101 17.0228C7.38858 17.0076 7.27456 17 7.22895 17H6.4194C6.4042 17 6.35859 16.9924 6.28257 16.9772C6.20656 16.9544 6.15715 16.943 6.13435 16.943C6.13435 16.943 6.11534 16.9468 6.07733 16.9544C6.04693 16.962 6.01272 16.9696 5.97472 16.9772C5.93671 16.9772 5.8987 16.981 5.86069 16.9886C5.83029 16.9962 5.81129 17 5.80368 17H5.26778C4.67487 17.0152 4.07816 17.0456 3.47765 17.0912C2.88474 17.1368 2.28423 17.1596 1.67611 17.1596H1.12881C1.11361 17.1596 1.0946 17.1558 1.0718 17.1482C1.0566 17.1406 1.01479 17.1102 0.946377 17.057C0.931174 17.0418 0.915971 17.0076 0.900768 16.9544C0.893167 16.9012 0.889366 16.8518 0.889366 16.8062C0.889366 16.7225 0.904569 16.6503 0.934975 16.5895C0.972982 16.5211 1.02239 16.4793 1.0832 16.4641C1.09841 16.4565 1.12881 16.4413 1.17442 16.4185C1.22003 16.3881 1.25043 16.3653 1.26564 16.3501C1.41766 16.2817 1.5963 16.2475 1.80154 16.2475C2.01438 16.2475 2.22722 16.2437 2.44006 16.2361C2.6529 16.2209 2.85053 16.1866 3.03297 16.1334C3.2154 16.0726 3.35603 15.9548 3.45485 15.78C3.46245 15.7496 3.47005 15.6926 3.47765 15.6089C3.48525 15.5177 3.49285 15.4265 3.50045 15.3353C3.50806 15.2365 3.51566 15.1491 3.52326 15.073C3.53086 14.9894 3.53466 14.9362 3.53466 14.9134C3.53466 14.8906 3.51946 14.8412 3.48905 14.7652C3.46625 14.6816 3.45485 14.6322 3.45485 14.617V14.024L3.42064 13.7618C3.41304 13.7466 3.40924 13.7314 3.40924 13.7162C3.40164 13.701 3.39783 13.6858 3.39783 13.6706C3.39783 13.549 3.40544 13.4463 3.42064 13.3627C3.44344 13.2791 3.45485 13.1841 3.45485 13.0777V12.8952C3.45485 12.8648 3.44724 12.8154 3.43204 12.747C3.42444 12.6786 3.42064 12.6368 3.42064 12.6216C3.42064 12.5988 3.42444 12.5418 3.43204 12.4506C3.44724 12.3593 3.45485 12.2985 3.45485 12.2681V11.4928C3.45485 11.4548 3.47005 11.3864 3.50045 11.2875C3.53086 11.1887 3.54226 11.1203 3.53466 11.0823C3.51946 11.0443 3.50425 10.9379 3.48905 10.763C3.48145 10.5882 3.47005 10.307 3.45485 9.91928V9.13253C3.47005 8.74486 3.48145 8.46741 3.48905 8.30018C3.50425 8.13294 3.51946 8.03413 3.53466 8.00372V7.94671C3.53466 7.65786 3.51946 7.369 3.48905 7.08015C3.46625 6.79129 3.45485 6.50244 3.45485 6.21359C3.45485 6.16038 3.45104 6.10717 3.44344 6.05396C3.43584 6.00075 3.43204 5.94754 3.43204 5.89433C3.43204 5.82591 3.44724 5.7309 3.47765 5.60927C3.51566 5.48005 3.53466 5.33182 3.53466 5.16459C3.53466 4.97455 3.53086 4.78072 3.52326 4.58308C3.51566 4.37784 3.51186 4.17641 3.51186 3.97877C3.51186 3.80394 3.51566 3.6329 3.52326 3.46567C3.53086 3.29084 3.53466 3.11601 3.53466 2.94117C3.49665 2.85756 3.47005 2.75874 3.45485 2.64472C3.44724 2.5307 3.43584 2.42048 3.42064 2.31406C3.41304 2.20004 3.39783 2.09742 3.37503 2.0062C3.35983 1.90738 3.32182 1.83517 3.26101 1.78956C3.15459 1.70594 2.99876 1.65273 2.79352 1.62993C2.59588 1.59952 2.37544 1.57292 2.1322 1.55011C1.92696 1.53491 1.71792 1.52351 1.50508 1.51591C1.29984 1.50071 1.12881 1.4627 0.991985 1.40189C0.809551 1.33347 0.718334 1.19285 0.718334 0.980008ZM18.0838 16.7035C18.0838 16.5743 18.137 16.4755 18.2434 16.4071C18.3498 16.3311 18.4676 16.2931 18.5969 16.2931C18.6273 16.2931 18.6653 16.2969 18.7109 16.3045C18.7565 16.3045 18.7907 16.3045 18.8135 16.3045H19.053C19.0606 16.3045 19.0948 16.3045 19.1556 16.3045C19.224 16.2969 19.2734 16.2855 19.3038 16.2703C19.319 16.2551 19.3494 16.2437 19.395 16.2361C19.4482 16.2209 19.4824 16.2133 19.4976 16.2133H19.5432H19.5775L19.8739 16.2475C19.9651 16.2475 20.0183 16.2399 20.0335 16.2247C20.0487 16.2095 20.0829 16.1714 20.1362 16.1106C20.1666 16.0726 20.1894 16.0346 20.2046 15.9966C20.2274 15.951 20.2578 15.9092 20.2958 15.8712V15.3467C20.2958 15.1263 20.2844 14.9172 20.2616 14.7196C20.2388 14.5143 20.2274 14.3015 20.2274 14.0811C20.2274 13.9062 20.235 13.777 20.2502 13.6934C20.2654 13.6022 20.273 13.4881 20.273 13.3513V13.2715C20.273 13.2411 20.273 13.1917 20.273 13.1233C20.273 13.0549 20.2692 12.9598 20.2616 12.8382C20.254 12.709 20.2426 12.5456 20.2274 12.3479C20.2122 12.1503 20.1932 11.907 20.1704 11.6182C20.1932 11.5118 20.2084 11.4206 20.216 11.3445C20.2236 11.2609 20.2274 11.1659 20.2274 11.0595V10.763C20.2274 10.7554 20.2236 10.7326 20.216 10.6946C20.2084 10.6566 20.2008 10.6148 20.1932 10.5692C20.1932 10.5236 20.1894 10.4856 20.1818 10.4552C20.1742 10.4172 20.1704 10.3944 20.1704 10.3868V9.65703C20.1704 9.60382 20.1666 9.4898 20.159 9.31496C20.1514 9.13253 20.14 8.93869 20.1248 8.73346C20.1172 8.52822 20.1096 8.33818 20.102 8.16335C20.0944 7.98092 20.0906 7.85549 20.0906 7.78708C20.0753 7.70346 20.0297 7.61985 19.9537 7.53623C19.8777 7.45262 19.8055 7.3842 19.7371 7.33099C19.6611 7.27778 19.6041 7.25118 19.5661 7.25118C19.5432 7.25118 19.5204 7.25498 19.4976 7.26258C19.4748 7.27018 19.4444 7.27398 19.4064 7.27398H19.3038C19.2886 7.25878 19.2468 7.23978 19.1784 7.21697C19.11 7.18657 19.0682 7.17136 19.053 7.17136C19.0302 7.16376 18.9693 7.15236 18.8705 7.13716C18.7793 7.11435 18.6805 7.09535 18.5741 7.08015C18.4676 7.06494 18.365 7.04974 18.2662 7.03454C18.175 7.01934 18.118 7.00793 18.0952 7.00033C18.0268 6.98513 17.966 6.95472 17.9127 6.90912C17.8671 6.85591 17.8443 6.78749 17.8443 6.70388C17.8443 6.64307 17.8557 6.56705 17.8785 6.47583C17.9013 6.38462 17.9432 6.32761 18.004 6.3048C18.0648 6.2668 18.156 6.24019 18.2776 6.22499C18.4068 6.20218 18.5475 6.18698 18.6995 6.17938C18.8515 6.16418 19.0111 6.15658 19.1784 6.15658C19.3456 6.15658 19.5052 6.15658 19.6573 6.15658C19.6725 6.14137 19.6991 6.13377 19.7371 6.13377C19.7827 6.13377 19.8283 6.13377 19.8739 6.13377C19.9803 6.13377 20.0944 6.13757 20.216 6.14517C20.3376 6.15277 20.4136 6.15658 20.444 6.15658C20.4668 6.15658 20.5238 6.15658 20.615 6.15658C20.7063 6.14897 20.8051 6.14517 20.9115 6.14517C21.0255 6.14517 21.1319 6.14517 21.2308 6.14517C21.3296 6.13757 21.3904 6.13377 21.4132 6.13377C21.4208 6.13377 21.4664 6.12997 21.55 6.12237C21.6412 6.10717 21.7477 6.09576 21.8693 6.08816C21.9909 6.07296 22.1201 6.06156 22.257 6.05396C22.3938 6.03875 22.5154 6.03115 22.6218 6.03115H24.0927C24.1611 6.06156 24.2447 6.08816 24.3435 6.11097C24.45 6.13377 24.5488 6.16038 24.64 6.19078C24.7388 6.22119 24.8186 6.263 24.8794 6.3162C24.9479 6.36181 24.9821 6.43023 24.9821 6.52144C24.9821 6.62786 24.9289 6.72288 24.8224 6.8065C24.716 6.88251 24.5906 6.94712 24.4462 7.00033C24.3017 7.04594 24.1573 7.08395 24.0129 7.11435C23.8685 7.14476 23.7582 7.16376 23.6822 7.17136H22.8955C22.8803 7.17136 22.8385 7.19797 22.7701 7.25118C22.7016 7.29679 22.6522 7.32339 22.6218 7.33099C22.5154 7.3842 22.428 7.42981 22.3596 7.46782C22.2988 7.50583 22.2684 7.55524 22.2684 7.61605V7.83269C22.2684 7.9087 22.2722 7.99232 22.2798 8.08353C22.2874 8.16715 22.3216 8.23936 22.3824 8.30018V8.81327C22.3824 9.26936 22.352 9.72544 22.2912 10.1815C22.2304 10.63 22.1999 11.0823 22.1999 11.5384C22.1923 11.5612 22.1847 11.6524 22.1771 11.812C22.1771 11.9717 22.1733 12.1579 22.1657 12.3707C22.1657 12.576 22.1657 12.7888 22.1657 13.0093C22.1657 13.2297 22.1657 13.4083 22.1657 13.5452C22.1657 13.6136 22.1657 13.7428 22.1657 13.9328C22.1657 14.1153 22.1657 14.3129 22.1657 14.5257C22.1733 14.7386 22.1771 14.94 22.1771 15.1301C22.1847 15.3125 22.1923 15.4417 22.1999 15.5177C22.1771 15.6698 22.2037 15.7914 22.2798 15.8826C22.3634 15.9662 22.466 16.0346 22.5876 16.0878C22.7168 16.141 22.8575 16.1828 23.0095 16.2133C23.1691 16.2437 23.3136 16.2779 23.4428 16.3159C23.5796 16.3463 23.6936 16.3881 23.7848 16.4413C23.8761 16.4945 23.9217 16.5705 23.9217 16.6693C23.9217 16.7682 23.8647 16.8518 23.7506 16.9202C23.6442 16.981 23.5568 17.0266 23.4884 17.057C23.4656 17.0722 23.4238 17.0798 23.363 17.0798C23.3022 17.0874 23.2375 17.0912 23.1691 17.0912C23.1083 17.0988 23.0513 17.1026 22.9981 17.1026C22.9449 17.1026 22.9107 17.1026 22.8955 17.1026C22.8499 17.1026 22.7929 17.1026 22.7244 17.1026C22.656 17.1026 22.5876 17.0988 22.5192 17.0912C22.4584 17.0912 22.4014 17.0874 22.3482 17.0798C22.3026 17.0798 22.276 17.0722 22.2684 17.057C22.2608 17.057 22.2418 17.0532 22.2113 17.0456C22.1809 17.038 22.1467 17.0304 22.1087 17.0228C22.0707 17.0228 22.0327 17.019 21.9947 17.0114C21.9567 17.0038 21.9339 17 21.9263 17H21.8237C21.7097 17 21.5956 17.0304 21.4816 17.0912C21.3752 17.152 21.2688 17.1824 21.1624 17.1824C21.1395 17.1824 21.0825 17.1786 20.9913 17.171C20.9001 17.1634 20.8051 17.152 20.7063 17.1368C20.615 17.1216 20.5276 17.1064 20.444 17.0912C20.3604 17.0836 20.311 17.0722 20.2958 17.057H19.9993C19.8397 17.057 19.6877 17.076 19.5432 17.114C19.4064 17.1596 19.2544 17.1824 19.0872 17.1824C19.0188 17.1824 18.9275 17.1786 18.8135 17.171C18.6995 17.1634 18.5893 17.1444 18.4829 17.114C18.3764 17.0836 18.2814 17.038 18.1978 16.9772C18.1218 16.9088 18.0838 16.8176 18.0838 16.7035ZM25.8942 11.0823C25.9094 11.0823 25.9246 11.0481 25.9398 10.9797C25.9626 10.9037 25.9817 10.8581 25.9969 10.8429C25.9969 10.8276 25.9969 10.7972 25.9969 10.7516C26.0045 10.6984 26.0121 10.6452 26.0197 10.592C26.0273 10.5312 26.0349 10.478 26.0425 10.4324C26.0501 10.3792 26.0539 10.345 26.0539 10.3298C26.0615 10.307 26.0729 10.2765 26.0881 10.2385C26.1033 10.1929 26.1223 10.1473 26.1451 10.1017C26.1679 10.0561 26.1869 10.0143 26.2021 9.97629C26.2249 9.93828 26.2439 9.91168 26.2591 9.89647C26.2667 9.88127 26.2781 9.86607 26.2933 9.85086C26.3085 9.82046 26.3237 9.80526 26.3389 9.80526C26.3845 9.67603 26.4149 9.53921 26.4301 9.39478C26.4529 9.25035 26.5061 9.12873 26.5898 9.02991C26.5974 9.00711 26.6164 8.9767 26.6468 8.93869C26.6848 8.89309 26.719 8.84748 26.7494 8.80187C26.7874 8.75626 26.8216 8.71445 26.852 8.67645C26.89 8.63084 26.9204 8.59663 26.9432 8.57383C26.9508 8.57383 26.966 8.56242 26.9888 8.53962C27.0192 8.51682 27.0459 8.49021 27.0687 8.45981C27.0991 8.4294 27.1257 8.40279 27.1485 8.37999C27.1789 8.34958 27.1979 8.33058 27.2055 8.32298C27.2055 8.30778 27.2131 8.27737 27.2283 8.23176C27.2359 8.20896 27.2473 8.18615 27.2625 8.16335C27.4601 7.8897 27.711 7.63885 28.015 7.41081C28.3191 7.18277 28.6459 6.98893 28.9956 6.8293C29.3529 6.66207 29.7177 6.53285 30.0902 6.44163C30.4627 6.35041 30.8162 6.3048 31.1506 6.3048C31.2114 6.3048 31.2912 6.3048 31.3901 6.3048C31.4889 6.3048 31.5459 6.3124 31.5611 6.32761L31.8005 6.38462C31.8537 6.39982 31.9412 6.41502 32.0628 6.43023C32.192 6.43783 32.325 6.44923 32.4619 6.46443C32.5987 6.47203 32.7241 6.47964 32.8381 6.48724C32.9598 6.49484 33.0396 6.50244 33.0776 6.51004C33.2524 6.60886 33.4196 6.67727 33.5793 6.71528C33.7389 6.74569 33.9061 6.76089 34.081 6.76089C34.1874 6.76089 34.2824 6.74188 34.366 6.70388C34.4572 6.66587 34.5409 6.62406 34.6169 6.57845C34.7005 6.52524 34.7841 6.47964 34.8677 6.44163C34.9513 6.40362 35.0387 6.38462 35.13 6.38462C35.2896 6.38462 35.4226 6.45303 35.529 6.58986C35.6431 6.72668 35.7001 6.87111 35.7001 7.02314C35.7001 7.10675 35.6735 7.18277 35.6203 7.25118C35.567 7.31199 35.5366 7.41081 35.529 7.54763V8.67645C35.529 8.69165 35.5138 8.74866 35.4834 8.84748C35.4606 8.93869 35.4492 8.99951 35.4492 9.02991C35.434 9.11353 35.4264 9.19714 35.4264 9.28076C35.4264 9.35677 35.415 9.42899 35.3922 9.4974C35.377 9.55821 35.3428 9.60762 35.2896 9.64563C35.2364 9.68363 35.149 9.70264 35.0273 9.70264H34.9133C34.8981 9.67983 34.8829 9.62282 34.8677 9.53161C34.8601 9.44039 34.8563 9.38338 34.8563 9.36057C34.7727 9.09452 34.6739 8.86648 34.5599 8.67645C34.4534 8.47881 34.3166 8.26977 34.1494 8.04933C34.1494 8.03413 34.1342 8.01892 34.1038 8.00372C34.081 7.98852 34.062 7.98092 34.0468 7.98092C33.8719 7.86689 33.7161 7.76047 33.5793 7.66166C33.45 7.56284 33.317 7.47162 33.1802 7.38801C33.051 7.29679 32.9103 7.21697 32.7583 7.14856C32.6139 7.07255 32.4391 7.00413 32.2338 6.94332H32.1882H32.154C32.1008 6.94332 32.0058 6.95092 31.869 6.96613C31.7397 6.98133 31.5991 7.00033 31.4471 7.02314C31.3026 7.03834 31.162 7.05354 31.0252 7.06875C30.896 7.07635 30.8048 7.08015 30.7515 7.08015C30.7363 7.09535 30.7059 7.11435 30.6603 7.13716C30.6147 7.15996 30.5881 7.17897 30.5805 7.19417C30.5653 7.19417 30.5349 7.21317 30.4893 7.25118C30.4513 7.28919 30.4057 7.3348 30.3525 7.38801C30.3069 7.44122 30.2613 7.49062 30.2156 7.53623C30.1776 7.58184 30.151 7.60845 30.1358 7.61605C30.1282 7.63125 30.1016 7.65405 30.056 7.68446C30.018 7.71487 29.9762 7.74527 29.9306 7.77568C29.885 7.79848 29.8394 7.82129 29.7938 7.84409C29.7482 7.86689 29.7177 7.8821 29.7025 7.8897C29.6949 7.8897 29.6835 7.9125 29.6683 7.95811C29.6531 8.00372 29.6455 8.03413 29.6455 8.04933C29.6379 8.04933 29.6189 8.06453 29.5885 8.09494C29.5657 8.11774 29.5353 8.14435 29.4973 8.17475C29.4669 8.20516 29.4365 8.23556 29.4061 8.26597C29.3757 8.29637 29.3567 8.31538 29.3491 8.32298C29.3415 8.33818 29.3149 8.37999 29.2693 8.4484C29.2313 8.51682 29.2123 8.55862 29.2123 8.57383C29.2123 8.59663 29.1933 8.63084 29.1552 8.67645C29.1248 8.71445 29.1058 8.73346 29.0982 8.73346C29.0982 8.75626 29.0868 8.77526 29.064 8.79047C29.0488 8.80567 29.0412 8.82087 29.0412 8.83608C28.6916 9.24655 28.4559 9.71404 28.3343 10.2385C28.2127 10.7554 28.1519 11.2723 28.1519 11.7892C28.1519 11.812 28.1557 11.85 28.1633 11.9032C28.1709 11.9565 28.1785 12.0135 28.1861 12.0743C28.2013 12.1275 28.2127 12.1807 28.2203 12.2339C28.2355 12.2795 28.2431 12.3099 28.2431 12.3251C28.2507 12.4239 28.2583 12.5418 28.2659 12.6786C28.2811 12.8078 28.2963 12.9446 28.3115 13.0891C28.3343 13.2335 28.3609 13.3741 28.3913 13.5109C28.4217 13.6478 28.4597 13.7656 28.5053 13.8644C28.5053 13.8796 28.5167 13.9062 28.5395 13.9442C28.5699 13.9746 28.5965 14.0126 28.6193 14.0583C28.6498 14.0963 28.6764 14.1305 28.6992 14.1609C28.7296 14.1913 28.7448 14.2103 28.7448 14.2179C28.76 14.2331 28.7752 14.2597 28.7904 14.2977C28.8056 14.3357 28.8208 14.3813 28.836 14.4345C28.8588 14.4801 28.874 14.5257 28.8816 14.5713C28.8968 14.6094 28.9082 14.636 28.9158 14.6512C28.931 14.6816 28.9386 14.7006 28.9386 14.7082C28.9386 14.7234 28.9348 14.7386 28.9272 14.7538C28.9272 14.769 28.9272 14.7842 28.9272 14.7994C28.9196 14.8146 28.9158 14.826 28.9158 14.8336C28.9234 14.8488 28.9348 14.864 28.95 14.8792C28.9728 14.902 29.0032 14.9134 29.0412 14.9134C29.2617 15.0958 29.4593 15.2593 29.6341 15.4037C29.809 15.5481 29.9876 15.6736 30.17 15.78C30.3525 15.8864 30.5539 15.9852 30.7743 16.0764C30.9948 16.16 31.257 16.2361 31.5611 16.3045L31.8005 16.3843C31.869 16.3843 31.9488 16.3691 32.04 16.3387C32.1388 16.3083 32.2338 16.2703 32.325 16.2247C32.4163 16.179 32.4999 16.1258 32.5759 16.065C32.6519 16.0042 32.7089 15.9396 32.7469 15.8712C32.7621 15.8712 32.7811 15.8484 32.8039 15.8028C32.8267 15.7496 32.8457 15.7154 32.8609 15.7002L32.9179 15.6431V15.3011C32.9179 14.8678 32.9484 14.4459 33.0092 14.0354C33.07 13.625 33.1004 13.2145 33.1004 12.804C33.1004 12.766 33.1004 12.7014 33.1004 12.6102C33.1004 12.5114 33.0928 12.4353 33.0776 12.3821C33.0776 12.3669 33.0548 12.3555 33.0092 12.3479C32.9712 12.3327 32.9408 12.3251 32.9179 12.3251C32.9027 12.3175 32.8533 12.3099 32.7697 12.3023C32.6861 12.2947 32.5949 12.2909 32.4961 12.2909C32.4049 12.2833 32.3136 12.2757 32.2224 12.2681C32.1312 12.2605 32.0742 12.2529 32.0514 12.2453C31.9222 12.2149 31.7891 12.1617 31.6523 12.0857C31.5155 12.0021 31.4471 11.8728 31.4471 11.698C31.4471 11.6372 31.4623 11.5878 31.4927 11.5498C31.5231 11.5118 31.5725 11.4738 31.6409 11.4358H32.0172C32.2148 11.4358 32.4049 11.4548 32.5873 11.4928C32.7773 11.5232 32.9674 11.5384 33.1574 11.5384C33.4386 11.5384 33.7161 11.5232 33.9897 11.4928C34.2634 11.4548 34.5447 11.4358 34.8335 11.4358C35.1148 11.4358 35.3884 11.4624 35.6545 11.5156C35.9281 11.5612 36.2094 11.5992 36.4982 11.6296C36.5666 11.6676 36.6236 11.7132 36.6692 11.7664C36.7225 11.812 36.7491 11.888 36.7491 11.9945C36.7491 12.0021 36.7491 12.0135 36.7491 12.0287C36.7491 12.0439 36.7415 12.0515 36.7263 12.0515C36.635 12.1579 36.5248 12.2225 36.3956 12.2453C36.2664 12.2681 36.1371 12.2833 36.0079 12.2909C35.8787 12.2909 35.7495 12.3061 35.6203 12.3365C35.491 12.3669 35.3808 12.4429 35.2896 12.5646C35.282 12.6102 35.2668 12.6862 35.244 12.7926C35.2288 12.899 35.2098 13.0131 35.187 13.1347C35.1642 13.2563 35.1452 13.3741 35.13 13.4881C35.1148 13.5946 35.1072 13.6668 35.1072 13.7048C35.0996 13.7352 35.0882 13.8112 35.0729 13.9328C35.0653 14.0544 35.0577 14.1837 35.0501 14.3205C35.0425 14.4573 35.0349 14.5865 35.0273 14.7082C35.0197 14.8222 35.0159 14.8906 35.0159 14.9134C35.0159 14.921 35.0083 14.94 34.9931 14.9704C34.9855 14.9932 34.9741 15.0198 34.9589 15.0502C34.9513 15.0806 34.9399 15.111 34.9247 15.1415C34.9171 15.1643 34.9133 15.1795 34.9133 15.1871C34.9361 15.2023 34.9703 15.2517 35.0159 15.3353C35.0615 15.4189 35.092 15.4797 35.1072 15.5177C35.1072 15.5481 35.1186 15.5747 35.1414 15.5975L35.187 15.6431C35.2478 15.6279 35.301 15.6089 35.3466 15.5861C35.3846 15.5709 35.4226 15.5557 35.4606 15.5405C35.4986 15.5253 35.5214 15.5177 35.529 15.5177H35.6431C35.7647 15.5177 35.8673 15.5481 35.9509 15.6089C36.0345 15.6698 36.0763 15.7572 36.0763 15.8712V15.951C36.0763 16.0042 36.0687 16.0384 36.0535 16.0536C35.8559 16.1904 35.6355 16.3311 35.3922 16.4755C35.149 16.6123 34.9057 16.6959 34.6625 16.7263C34.5332 16.7568 34.4154 16.7758 34.309 16.7834C34.2026 16.7834 34.0962 16.7872 33.9897 16.7948C33.8833 16.8024 33.7731 16.8214 33.6591 16.8518C33.5527 16.8746 33.431 16.924 33.2942 17H32.1768C31.7055 17 31.2456 16.9886 30.7972 16.9658C30.3563 16.9354 29.9078 16.8556 29.4517 16.7263C29.4441 16.7263 29.4175 16.7263 29.3719 16.7263C29.3339 16.7187 29.2883 16.7111 29.2351 16.7035C29.1895 16.6959 29.1438 16.6883 29.0982 16.6807C29.0602 16.6731 29.0412 16.6693 29.0412 16.6693C29.026 16.6617 28.988 16.6389 28.9272 16.6009C28.874 16.5629 28.817 16.5249 28.7562 16.4869C28.6954 16.4413 28.6383 16.4033 28.5851 16.3729C28.5395 16.3349 28.5129 16.3121 28.5053 16.3045C28.3001 16.1752 28.0834 16.027 27.8554 15.8598C27.6274 15.6926 27.4107 15.5101 27.2055 15.3125C27.0002 15.1148 26.814 14.9058 26.6468 14.6854C26.4795 14.4573 26.3503 14.2217 26.2591 13.9784C26.2287 13.9024 26.1907 13.796 26.1451 13.6592C26.1071 13.5147 26.0691 13.3665 26.0311 13.2145C25.9931 13.0549 25.9588 12.899 25.9284 12.747C25.9056 12.595 25.8942 12.4658 25.8942 12.3593V11.0823ZM38.4936 16.6465C38.4936 16.6237 38.4974 16.5895 38.505 16.5439C38.5126 16.4983 38.5164 16.4603 38.5164 16.4299C38.5924 16.3767 38.6874 16.3349 38.8014 16.3045C38.9155 16.2741 39.0333 16.2513 39.1549 16.2361C39.2841 16.2209 39.4058 16.2095 39.5198 16.2019C39.6338 16.1942 39.7326 16.1828 39.8162 16.1676C39.8238 16.16 39.8314 16.141 39.839 16.1106C39.8466 16.0726 39.8542 16.0384 39.8618 16.008C39.8694 15.97 39.877 15.9358 39.8846 15.9054C39.8922 15.8674 39.896 15.8446 39.896 15.837C39.9113 15.8218 39.9189 15.7952 39.9189 15.7572C39.9189 15.7192 39.9151 15.6812 39.9075 15.6431C39.8999 15.5975 39.896 15.5709 39.896 15.5633C39.9113 15.5405 39.9303 15.5101 39.9531 15.4721C39.9835 15.4341 39.9987 15.4037 39.9987 15.3809V15.2213C39.9987 15.1072 39.9949 15.0084 39.9873 14.9248C39.9797 14.8412 39.9493 14.731 39.896 14.5942C39.9037 14.5257 39.9075 14.4269 39.9075 14.2977C39.9151 14.1685 39.9227 14.0202 39.9303 13.853C39.9379 13.6858 39.9417 13.5071 39.9417 13.3171C39.9493 13.1195 39.9531 12.9218 39.9531 12.7242C39.9531 12.3213 39.9455 11.9451 39.9303 11.5954C39.9227 11.2457 39.9113 10.9949 39.896 10.8429C39.896 10.7744 39.8922 10.668 39.8846 10.5236C39.8846 10.3792 39.8808 10.2157 39.8732 10.0333C39.8732 9.85086 39.8694 9.66083 39.8618 9.46319C39.8542 9.26556 39.8466 9.07552 39.839 8.89309C39.839 8.71065 39.8352 8.55102 39.8276 8.4142C39.8276 8.26977 39.8238 8.16715 39.8162 8.10634C39.8162 8.06833 39.8124 8.01892 39.8048 7.95811C39.7972 7.8897 39.7858 7.82129 39.7706 7.75287C39.763 7.68446 39.7516 7.62365 39.7364 7.57044C39.7288 7.51723 39.7212 7.48302 39.7136 7.46782C39.6756 7.3462 39.592 7.26638 39.4628 7.22838C39.3411 7.19037 39.2119 7.16376 39.0751 7.14856C38.9459 7.12576 38.828 7.09535 38.7216 7.05734C38.6228 7.01173 38.5734 6.92052 38.5734 6.78369C38.5734 6.73048 38.5772 6.68107 38.5848 6.63546C38.5924 6.58225 38.6266 6.54425 38.6874 6.52144C38.7102 6.50624 38.7444 6.49104 38.79 6.47583C38.8433 6.46063 38.8965 6.44543 38.9497 6.43023C39.0105 6.40742 39.0637 6.39222 39.1093 6.38462C39.1549 6.36941 39.1853 6.35801 39.2005 6.35041H39.8162H40.4319C40.4396 6.35041 40.4624 6.35801 40.5004 6.37322C40.546 6.38082 40.5916 6.39222 40.6372 6.40742C40.6828 6.41502 40.7284 6.42262 40.774 6.43023C40.8196 6.43783 40.85 6.44163 40.8652 6.44163C40.8956 6.43403 40.9602 6.42262 41.0591 6.40742C41.1579 6.38462 41.2643 6.36181 41.3783 6.33901C41.4999 6.3162 41.6102 6.2972 41.709 6.282C41.8078 6.2668 41.8724 6.25539 41.9028 6.24779H42.4045H42.8492C42.9024 6.25539 42.9632 6.2706 43.0316 6.2934C43.1076 6.3086 43.1799 6.33141 43.2483 6.36181C43.3167 6.39222 43.3737 6.43023 43.4193 6.47583C43.4649 6.52144 43.4877 6.57085 43.4877 6.62406C43.4877 6.73048 43.4231 6.8141 43.2939 6.87491C43.1647 6.92812 43.0126 6.97373 42.8378 7.01173C42.663 7.04214 42.4843 7.07255 42.3019 7.10295C42.1271 7.12576 41.994 7.15616 41.9028 7.19417C41.8344 7.24738 41.7888 7.31199 41.766 7.38801C41.7508 7.45642 41.7128 7.50963 41.652 7.54763V8.12914V8.69925C41.652 8.70685 41.6596 8.75246 41.6748 8.83608C41.6976 8.91209 41.7166 8.9577 41.7318 8.9729V9.07552V9.13253C41.7242 9.13253 41.709 9.14393 41.6862 9.16674C41.671 9.17434 41.6596 9.18194 41.652 9.18954C41.6368 9.21995 41.6254 9.27316 41.6178 9.34917C41.6178 9.42519 41.614 9.505 41.6064 9.58862C41.6064 9.67223 41.6026 9.75585 41.595 9.83946C41.595 9.91548 41.5874 9.96869 41.5722 9.99909C41.6102 10.0827 41.6368 10.1891 41.652 10.3184C41.6748 10.4476 41.7014 10.5692 41.7318 10.6832C41.7318 10.6984 41.7356 10.7288 41.7432 10.7744C41.7508 10.8124 41.7584 10.8581 41.766 10.9113C41.7812 10.9569 41.7926 11.0025 41.8002 11.0481C41.8154 11.0861 41.823 11.1089 41.823 11.1165C41.823 11.1393 41.8268 11.1697 41.8344 11.2077C41.842 11.2457 41.8534 11.2875 41.8686 11.3331C41.8914 11.3711 41.9142 11.4054 41.937 11.4358C41.9674 11.4662 42.0016 11.4814 42.0396 11.4814H42.0853C42.4957 11.4206 42.9404 11.3749 43.4193 11.3445C43.8982 11.3141 44.3391 11.2989 44.742 11.2989C44.8332 11.2989 44.913 11.3179 44.9814 11.3559C45.0574 11.394 45.1372 11.413 45.2208 11.413C45.5325 11.413 45.8214 11.394 46.0874 11.3559C46.3535 11.3103 46.6423 11.2913 46.954 11.2989L47.1136 11.2191C47.1136 11.2039 47.1174 11.1431 47.125 11.0367C47.1326 10.9303 47.1364 10.8467 47.1364 10.7858C47.1364 10.7478 47.1326 10.6908 47.125 10.6148C47.125 10.5388 47.125 10.4666 47.125 10.3982C47.125 10.3222 47.1212 10.2537 47.1136 10.1929C47.1136 10.1321 47.1136 10.0941 47.1136 10.0789C47.1136 10.0333 47.1098 9.92308 47.1022 9.74825C47.0946 9.56581 47.0832 9.37198 47.068 9.16674C47.0604 8.9615 47.0528 8.77146 47.0452 8.59663C47.0376 8.4218 47.0338 8.31158 47.0338 8.26597V7.73007C47.011 7.54003 46.954 7.39561 46.8628 7.29679C46.7715 7.19037 46.6613 7.11435 46.5321 7.06875C46.4105 7.01554 46.2812 6.98133 46.1444 6.96613C46.0076 6.94332 45.8784 6.92052 45.7567 6.89771C45.6427 6.87491 45.5477 6.8445 45.4717 6.8065C45.3957 6.76849 45.3577 6.70008 45.3577 6.60126C45.3577 6.48724 45.4033 6.39982 45.4945 6.33901C45.5857 6.2782 45.6845 6.24779 45.791 6.24779H45.9734C46.019 6.25539 46.1216 6.2668 46.2812 6.282C46.4409 6.2972 46.6081 6.3162 46.7829 6.33901C46.9578 6.36181 47.1212 6.38462 47.2732 6.40742C47.4329 6.42262 47.5317 6.43403 47.5697 6.44163H47.6039H47.6267C47.6951 6.42643 47.7863 6.40742 47.9003 6.38462C48.0144 6.36181 48.1246 6.34281 48.231 6.32761C48.345 6.3124 48.4438 6.2972 48.5275 6.282C48.6187 6.2668 48.6719 6.25539 48.6871 6.24779C48.7099 6.24779 48.7403 6.23639 48.7783 6.21359C48.8239 6.18318 48.8543 6.16798 48.8695 6.16798H49.052H49.223L49.3826 6.21359C49.4206 6.22879 49.4586 6.24019 49.4966 6.24779C49.5346 6.24779 49.5575 6.24779 49.5651 6.24779C49.5879 6.25539 49.6411 6.263 49.7247 6.2706C49.8083 6.2782 49.8995 6.2858 49.9983 6.2934C50.0972 6.301 50.1846 6.3124 50.2606 6.32761C50.3442 6.33521 50.3936 6.34281 50.4088 6.35041C50.4392 6.35041 50.4772 6.36181 50.5228 6.38462C50.5684 6.40742 50.5912 6.42643 50.5912 6.44163C50.5912 6.47203 50.5988 6.51004 50.6141 6.55565C50.6217 6.58606 50.6255 6.60886 50.6255 6.62406C50.6255 6.63927 50.6255 6.66587 50.6255 6.70388C50.6255 6.73428 50.6217 6.76849 50.6141 6.8065C50.6064 6.8445 50.595 6.88251 50.5798 6.92052C50.5646 6.95092 50.5418 6.96993 50.5114 6.97753C50.4734 6.97753 50.4088 6.98513 50.3176 7.00033C50.2264 7.00793 50.1314 7.02314 50.0325 7.04594C49.9337 7.06114 49.8387 7.07635 49.7475 7.09155C49.6563 7.10675 49.5955 7.11435 49.5651 7.11435C49.4054 7.14476 49.28 7.20937 49.1888 7.30819C49.1052 7.39941 49.0178 7.51343 48.9265 7.65025C48.9189 7.68826 48.9113 7.75667 48.9037 7.85549C48.8961 7.94671 48.8885 8.04933 48.8809 8.16335C48.8809 8.27737 48.8771 8.38759 48.8695 8.49401C48.8695 8.59283 48.8695 8.66124 48.8695 8.69925V10.7516V12.7812C48.8695 12.8116 48.8695 12.8686 48.8695 12.9522C48.8771 13.0359 48.8809 13.1233 48.8809 13.2145C48.8885 13.3057 48.8961 13.3931 48.9037 13.4767C48.9113 13.5604 48.9189 13.6174 48.9265 13.6478C48.9417 13.6554 48.9531 13.6706 48.9607 13.6934C48.9759 13.7086 48.9911 13.7238 49.0064 13.739L49.052 13.8074V13.8986C49.052 13.9594 49.0444 14.0088 49.0292 14.0468C49.0216 14.0849 48.9873 14.1305 48.9265 14.1837L48.8695 15.4607C48.8695 15.4835 48.8733 15.5291 48.8809 15.5975C48.8961 15.6583 48.9113 15.704 48.9265 15.7344C48.9493 15.7572 48.9797 15.7914 49.0178 15.837C49.0634 15.8826 49.109 15.9282 49.1546 15.9738C49.2078 16.0194 49.261 16.0612 49.3142 16.0992C49.375 16.1372 49.432 16.16 49.4852 16.1676C49.5613 16.1828 49.6563 16.1981 49.7703 16.2133C49.8843 16.2285 49.9945 16.2551 50.101 16.2931C50.215 16.3235 50.31 16.3729 50.386 16.4413C50.4696 16.5097 50.5114 16.6047 50.5114 16.7263C50.5114 16.8328 50.4544 16.9126 50.3404 16.9658C50.234 17.0114 50.139 17.0342 50.0553 17.0342H49.9983C49.9831 17.0342 49.9489 17.0304 49.8957 17.0228C49.8501 17.0152 49.7969 17.0076 49.7361 17C49.6829 16.9848 49.6297 16.9734 49.5765 16.9658C49.5308 16.9506 49.5004 16.943 49.4852 16.943C49.47 16.943 49.4282 16.9506 49.3598 16.9658C49.299 16.9734 49.2344 16.9848 49.166 17C49.0976 17.0076 49.033 17.0152 48.9721 17.0228C48.9113 17.0304 48.8771 17.0342 48.8695 17.0342H48.8125H48.7555C48.7327 17.0342 48.6681 17.0304 48.5617 17.0228C48.4552 17.0152 48.3374 17.0076 48.2082 17C48.0866 16.9848 47.965 16.9734 47.8433 16.9658C47.7293 16.9582 47.6571 16.9506 47.6267 16.943H45.6313C45.6009 16.943 45.5667 16.9354 45.5287 16.9202C45.4907 16.8974 45.4717 16.8784 45.4717 16.8632V16.7263V16.5895C45.5477 16.4375 45.6731 16.3425 45.848 16.3045C46.0228 16.2589 46.1976 16.2323 46.3725 16.2247C46.5549 16.2095 46.7183 16.1981 46.8628 16.1904C47.0072 16.1752 47.0908 16.1182 47.1136 16.0194C47.1136 15.9662 47.1136 15.8788 47.1136 15.7572C47.1212 15.6279 47.125 15.4987 47.125 15.3695C47.125 15.2327 47.125 15.1034 47.125 14.9818C47.1326 14.8602 47.1364 14.7766 47.1364 14.731C47.1364 14.6474 47.1326 14.5371 47.125 14.4003C47.125 14.2635 47.125 14.1305 47.125 14.0012C47.125 13.8644 47.1212 13.7466 47.1136 13.6478C47.1136 13.5414 47.1136 13.4767 47.1136 13.4539C47.1136 13.4387 47.1098 13.3969 47.1022 13.3285C47.1022 13.2601 47.0984 13.1879 47.0908 13.1119C47.0832 13.0283 47.0718 12.9522 47.0566 12.8838C47.049 12.8078 47.0414 12.7546 47.0338 12.7242C47.0186 12.6178 46.992 12.5266 46.954 12.4506C46.9236 12.3745 46.8589 12.3137 46.7601 12.2681H45.5971H44.4113C44.3809 12.2681 44.2935 12.2719 44.149 12.2795C44.0122 12.2871 43.8602 12.2985 43.693 12.3137C43.5257 12.3213 43.3661 12.3289 43.2141 12.3365C43.0696 12.3441 42.9822 12.3479 42.9518 12.3479H42.815H42.5185C42.4957 12.3479 42.4577 12.3517 42.4045 12.3593C42.3589 12.3669 42.3057 12.3745 42.2449 12.3821C42.1917 12.3897 42.1385 12.3973 42.0853 12.4049C42.0396 12.4125 42.0054 12.4201 41.9826 12.4277C41.975 12.4429 41.9598 12.4734 41.937 12.519C41.9142 12.557 41.9028 12.5836 41.9028 12.5988C41.8876 12.6596 41.8686 12.7432 41.8458 12.8496C41.8306 12.9484 41.8116 13.0511 41.7888 13.1575C41.7736 13.2563 41.7584 13.3475 41.7432 13.4311C41.7356 13.5071 41.7318 13.5528 41.7318 13.568C41.7318 13.6212 41.7356 13.7048 41.7432 13.8188C41.7508 13.9328 41.7584 14.0583 41.766 14.1951C41.7736 14.3243 41.7812 14.4497 41.7888 14.5713C41.804 14.693 41.8154 14.7918 41.823 14.8678C41.823 14.8754 41.8268 14.8982 41.8344 14.9362C41.842 14.9666 41.8496 15.0008 41.8572 15.0388C41.8648 15.0768 41.8724 15.1148 41.88 15.1529C41.8952 15.1909 41.9028 15.2137 41.9028 15.2213V15.5747V15.7344C41.9028 15.7572 41.9142 15.8066 41.937 15.8826C41.9598 15.9586 41.975 16.0042 41.9826 16.0194C41.9902 16.0194 42.0168 16.0308 42.0625 16.0536C42.1157 16.0764 42.1689 16.1068 42.2221 16.1448C42.2829 16.1752 42.3399 16.2095 42.3931 16.2475C42.4463 16.2855 42.4881 16.3197 42.5185 16.3501C42.5794 16.3881 42.6744 16.4071 42.8036 16.4071C42.9328 16.4071 43.062 16.4109 43.1913 16.4185C43.3205 16.4261 43.4345 16.4489 43.5333 16.4869C43.6321 16.5249 43.6816 16.5971 43.6816 16.7035C43.6816 16.772 43.6664 16.8214 43.6359 16.8518C43.6055 16.8746 43.5485 16.905 43.4649 16.943C43.2445 16.9734 43.0316 16.9924 42.8264 17C42.6288 17 42.4273 17 42.2221 17H41.2415H40.4662C40.4053 17 40.2989 17 40.1469 17C40.0025 17.0076 39.8428 17.0114 39.668 17.0114C39.5008 17.019 39.3411 17.0228 39.1891 17.0228C39.0371 17.0304 38.9307 17.0342 38.8699 17.0342C38.8471 17.0342 38.8166 17.0266 38.7786 17.0114C38.7406 17.0038 38.7026 16.9924 38.6646 16.9772C38.6266 16.9544 38.5924 16.9354 38.562 16.9202C38.5316 16.8974 38.5164 16.8784 38.5164 16.8632C38.5088 16.8328 38.505 16.8024 38.505 16.772C38.4974 16.7416 38.4936 16.6997 38.4936 16.6465ZM55.3003 16.9202C55.3003 16.8214 55.3231 16.7454 55.3687 16.6921C55.4143 16.6313 55.4714 16.5819 55.5398 16.5439C55.6158 16.5059 55.726 16.4755 55.8704 16.4527C56.0149 16.4223 56.1593 16.3919 56.3037 16.3615C56.4557 16.3235 56.5888 16.2779 56.7028 16.2247C56.8168 16.1638 56.8852 16.0802 56.908 15.9738V15.7344V15.6203C56.908 15.5671 56.908 15.4493 56.908 15.2669C56.9156 15.0768 56.9194 14.8602 56.9194 14.617C56.927 14.3661 56.9346 14.1001 56.9422 13.8188C56.9498 13.5376 56.9536 13.2715 56.9536 13.0207C56.9612 12.7698 56.965 12.5532 56.965 12.3707C56.9726 12.1807 56.9764 12.0553 56.9764 11.9945V10.0219V8.06073C56.9384 7.92391 56.8472 7.80608 56.7028 7.70726C56.566 7.60084 56.4215 7.54763 56.2695 7.54763H54.81C54.7568 7.54763 54.6808 7.57044 54.582 7.61605C54.4832 7.66166 54.4148 7.69206 54.3768 7.70726C54.0879 7.8821 53.8561 8.07213 53.6812 8.27737C53.5064 8.47501 53.3316 8.69165 53.1567 8.92729C53.1415 8.9425 53.1187 8.9691 53.0883 9.00711C53.0655 9.04511 53.0389 9.09072 53.0085 9.14393C52.9857 9.18954 52.9591 9.23515 52.9287 9.28076C52.9059 9.31877 52.8907 9.34537 52.8831 9.36057C52.8679 9.39858 52.8413 9.44799 52.8033 9.5088C52.7653 9.56961 52.7234 9.63042 52.6778 9.69124C52.6322 9.75205 52.5828 9.80526 52.5296 9.85086C52.484 9.89647 52.4422 9.91928 52.4042 9.91928C52.3282 9.91928 52.2636 9.90027 52.2103 9.86227C52.1647 9.82426 52.1267 9.77485 52.0963 9.71404C52.0735 9.65323 52.0545 9.58862 52.0393 9.5202C52.0317 9.44419 52.0279 9.37198 52.0279 9.30356C52.0279 9.13633 52.0431 8.9767 52.0735 8.82467C52.1039 8.67264 52.1343 8.51302 52.1647 8.34578C52.1875 8.24697 52.2103 8.09494 52.2332 7.8897C52.2636 7.67686 52.3016 7.46782 52.3472 7.26258C52.3928 7.04974 52.4574 6.86351 52.541 6.70388C52.6246 6.54425 52.7386 6.46443 52.8831 6.46443C52.8907 6.46443 52.9059 6.46823 52.9287 6.47583C52.9515 6.47583 52.9705 6.47583 52.9857 6.47583C53.0085 6.48344 53.0313 6.48724 53.0541 6.48724C53.0769 6.50244 53.1225 6.52904 53.1909 6.56705C53.2593 6.59746 53.3316 6.63166 53.4076 6.66967C53.4912 6.70768 53.5672 6.74188 53.6356 6.77229C53.704 6.8027 53.7458 6.8179 53.761 6.8179C53.7686 6.8255 53.7914 6.8331 53.8295 6.8407C53.8751 6.8407 53.9207 6.8407 53.9663 6.8407C54.0195 6.8407 54.0689 6.8407 54.1145 6.8407C54.1601 6.8407 54.1905 6.8407 54.2057 6.8407C54.2057 6.8407 54.2247 6.8483 54.2627 6.86351C54.3083 6.87111 54.354 6.88251 54.3996 6.89771C54.4528 6.91292 54.4984 6.92812 54.5364 6.94332C54.582 6.95092 54.6086 6.95472 54.6162 6.95472C54.9963 6.95472 55.3725 6.92052 55.745 6.85211C56.1251 6.77609 56.5052 6.73808 56.8852 6.73808C57.5541 6.73808 58.2155 6.77609 58.8692 6.85211C59.5305 6.92052 60.1918 6.95472 60.8532 6.95472H61.4347C61.4499 6.94712 61.4879 6.93572 61.5487 6.92052C61.6095 6.89771 61.6741 6.87871 61.7425 6.86351C61.8109 6.8407 61.8794 6.8179 61.9478 6.79509C62.0162 6.77229 62.0656 6.75329 62.096 6.73808C62.1644 6.71528 62.2214 6.68867 62.267 6.65827C62.3126 6.62026 62.3544 6.58225 62.3925 6.54425C62.4381 6.50624 62.4875 6.47583 62.5407 6.45303C62.5939 6.42262 62.6623 6.40742 62.7459 6.40742C62.8903 6.40742 63.0044 6.47583 63.088 6.61266C63.1792 6.74188 63.2476 6.89771 63.2932 7.08015C63.3464 7.26258 63.3844 7.44882 63.4072 7.63885C63.4376 7.82129 63.4719 7.96191 63.5099 8.06073C63.5403 8.22036 63.5859 8.38379 63.6467 8.55102C63.7151 8.71825 63.7493 8.89309 63.7493 9.07552C63.7493 9.12873 63.7417 9.18954 63.7265 9.25795C63.7189 9.32637 63.6999 9.39098 63.6695 9.45179C63.6391 9.505 63.5973 9.55061 63.5441 9.58862C63.4909 9.62662 63.4262 9.64563 63.3502 9.64563C63.2742 9.64563 63.183 9.58862 63.0766 9.47459C62.9702 9.35297 62.8561 9.21995 62.7345 9.07552C62.6205 8.92349 62.5065 8.77526 62.3925 8.63084C62.286 8.48641 62.1872 8.39139 62.096 8.34578C62.0808 8.33818 62.0466 8.31918 61.9934 8.28877C61.9478 8.25837 61.8946 8.22796 61.8337 8.19756C61.7805 8.16715 61.7273 8.14055 61.6741 8.11774C61.6285 8.08734 61.5981 8.06833 61.5829 8.06073C61.4385 7.97712 61.2978 7.8859 61.161 7.78708C61.0318 7.68826 60.8874 7.60845 60.7277 7.54763C60.7049 7.54763 60.6631 7.54763 60.6023 7.54763C60.5491 7.54763 60.4921 7.54763 60.4313 7.54763C60.3705 7.54003 60.3135 7.53623 60.2603 7.53623C60.2146 7.53623 60.1804 7.53623 60.1576 7.53623H59.941C59.7814 7.53623 59.6179 7.54763 59.4507 7.57044C59.2835 7.59324 59.158 7.66546 59.0744 7.78708C59.0744 7.84789 59.0782 7.94291 59.0858 8.07213C59.0934 8.20136 59.0972 8.34198 59.0972 8.49401C59.0972 8.64604 59.0934 8.78667 59.0858 8.91589C59.0782 9.04511 59.0744 9.13633 59.0744 9.18954C59.0744 9.20474 59.0668 9.23135 59.0516 9.26936C59.044 9.29976 59.0326 9.33397 59.0174 9.37198C59.0022 9.40998 58.987 9.44799 58.9718 9.486C58.9642 9.5164 58.9566 9.53541 58.949 9.54301V13.0207C58.8806 13.1575 58.8388 13.2639 58.8236 13.3399C58.8084 13.4159 58.8008 13.5185 58.8008 13.6478V13.8188C58.8008 13.834 58.8046 13.8682 58.8122 13.9214C58.8274 13.967 58.8388 14.0202 58.8464 14.0811C58.8616 14.1343 58.873 14.1875 58.8806 14.2407C58.8882 14.2863 58.892 14.3167 58.892 14.3319V15.6203C58.9148 15.78 58.9528 15.9206 59.006 16.0422C59.0592 16.1638 59.1733 16.2323 59.3481 16.2475C59.3785 16.2551 59.4393 16.2627 59.5305 16.2703C59.6293 16.2779 59.732 16.2855 59.8384 16.2931C59.9524 16.3007 60.0588 16.3083 60.1576 16.3159C60.2641 16.3235 60.3363 16.3273 60.3743 16.3273C60.4275 16.3653 60.4693 16.4185 60.4997 16.4869C60.5377 16.5477 60.5567 16.6123 60.5567 16.6807C60.5567 16.7416 60.5415 16.7872 60.5111 16.8176C60.4883 16.848 60.4427 16.8898 60.3743 16.943C60.0018 16.9354 59.6065 16.9392 59.1885 16.9544C58.778 16.962 58.3599 16.9734 57.9342 16.9886C57.5161 16.9962 57.1019 17.0038 56.6914 17.0114C56.2809 17.0266 55.897 17.0342 55.5398 17.0342C55.479 17.0342 55.4219 17.0304 55.3687 17.0228C55.3231 17.0152 55.3003 16.981 55.3003 16.9202Z" fill="white"/>
</svg>
